<svg height="512" viewBox="0 0 60 43" width="512" xmlns="http://www.w3.org/2000/svg"><g id="032---Gambling-Money" fill="none"><g id="Icons" transform="translate(1 1)"><path id="Shape" d="m57.12 18.91-17.68-17.68c-1.1712702-1.16981351-3.0687298-1.16981351-4.24 0l-9.33 9.77h-22.87c-1.65685425 0-3 1.3431458-3 3v24c0 1.6568542 1.34314575 3 3 3h24c1.6568542 0 3-1.3431458 3-3v-3.79l5.91 5.91c1.1712702 1.1698135 3.0687298 1.1698135 4.24 0l16.97-16.97c1.1698135-1.1712702 1.1698135-3.0687298 0-4.24z" fill="#c81e1e"/><g fill="#f5f5f5"><circle id="Oval" cx="35.908" cy="9.716" r="2.5"/><circle id="Oval" cx="33.08" cy="25.273" r="2.5"/><circle id="Oval" cx="42.272" cy="16.08" r="2.5"/><circle id="Oval" cx="39.443" cy="31.636" r="2.5"/><circle id="Oval" cx="48.636" cy="22.443" r="2.5"/></g><rect id="Rectangle-path" fill="#f44335" height="30" rx="3" width="27" y="11"/></g><g id="Layer_10" fill="#000"><path id="Shape" d="m41.147 1.523c-.7537138-.75044863-1.7749237-1.17035879-2.8385249-1.16716987-1.0636012.00318893-2.0822748.42921515-2.8314751 1.18416987l-9.034 9.46h-22.443c-2.209139 0-4 1.790861-4 4v24c0 2.209139 1.790861 4 4 4h24c2.209139 0 4-1.790861 4-4v-1.376l4.2 4.2c1.5617701 1.5601953 4.0922299 1.5601953 5.654 0l16.97-16.97c1.5601953-1.5617701 1.5601953-4.0922299 0-5.654zm-11.147 37.477c0 1.1045695-.8954305 2-2 2h-24c-1.1045695 0-2-.8954305-2-2v-24c0-1.1045695.8954305-2 2-2h24c1.1045695 0 2 .8954305 2 2zm27.413-15.557-16.97 16.97c-.7807702.7794319-2.0452298.7794319-2.826 0l-5.617-5.613v-5.729c1.4423019 1.0765674 3.4664361.8813924 4.6764639-.4509233 1.2100277-1.3323156 1.2100277-3.3658378 0-4.6981534-1.2100278-1.3323157-3.234162-1.5274907-4.6764639-.4509233v-8.471c-.0078029-1.7963765-1.2122102-3.3672182-2.945-3.841l7.852-8.222c.7807702-.77943189 2.0452298-.77943189 2.826 0l17.68 17.68c.7794319.7807702.7794319 2.0452298 0 2.826zm-23.33 1.329c.7889503.0017393 1.441704.6143389 1.4934618 1.4015915s-.5151734 1.4800402-1.297105 1.5850569c-.7819315.1050168-1.5115644-.4136367-1.6693568-1.1866484-.0902031-.4418977.023215-.9009289.3088434-1.2499657.2856284-.3490367.7131475-.5510286 1.1641566-.5500343z"/><path id="Shape" d="m40.408 10.716c0-1.93299662-1.5670034-3.5-3.5-3.5s-3.5 1.56700338-3.5 3.5c0 1.9329966 1.5670034 3.5 3.5 3.5 1.9316269-.0033029 3.4966971-1.5683731 3.5-3.5zm-2.44 1.06c-.5935286.5664778-1.5274714.5664778-2.121 0-.4290909-.4289614-.5575076-1.0741736-.3253626-1.6347408.2321449-.56056724.779128-.92607952 1.3858626-.92607952s1.1537177.36551228 1.3858626.92607952c.232145.5605672.1037283 1.2057794-.3253626 1.6347408z"/><path id="Shape" d="m45.747 14.605c-1.1201613-1.120047-2.8529438-1.3481184-4.2247777-.5560715s-2.0406773 2.4067296-1.6307383 3.936833c.409939 1.5301035 1.7964496 2.5941242 3.380516 2.5942385 1.4086772-.0142383 2.6727774-.868145 3.2118962-2.1696539.5391187-1.3015088.2490998-2.7991721-.7368962-3.8053461zm-1.414 3.536c-.480113.4798052-1.2225952.5774101-1.8104014.237991-.5878062-.3394192-.8744324-1.0312661-.6988832-1.6869367.1755491-.6556706.76952-1.1117466 1.4482846-1.1120543.6036305.0064138 1.1451873.3724206 1.3762367.9301186.2310495.557698.1070021 1.1994589-.3152367 1.6308814z"/><path id="Shape" d="m42.369 29.713c-1.3227733-.8715238-3.0659919-.7459687-4.2502172.3061214-1.1842253 1.05209-1.5141901 2.7683937-.8045017 4.1845947.7096885 1.4162011 2.2820811 2.179193 3.8337189 1.8602839 1.3867025-.2850098 2.4651529-1.3773229 2.7324289-2.7675524.2672761-1.3902295-.3292632-2.8045647-1.5114289-3.5834476zm-.669 3.748c-.3733269.5671545-1.0810799.8127993-1.7254992.598881s-1.0647752-.8340446-1.0248261-1.5118656c.0399491-.6778211.5302391-1.2442761 1.1953253-1.3810154.594136-.1221522 1.2033631.1255421 1.5437029.6276253.3403397.5020832.3447982 1.1597232.0112971 1.6663747z"/><path id="Shape" d="m47.161 20.968c-1.0012122 1.0009098-1.300851 2.5064052-.7591795 3.8143953.5416716 1.3079901 1.8179655 2.1608521 3.2336795 2.1608521s2.6920079-.852862 3.2336795-2.1608521c.5416715-1.3079901.2420327-2.8134855-.7591795-3.8143953-1.3667495-1.3663368-3.5822505-1.3663368-4.949 0zm3.539 3.532c-.4799595.4805566-1.222927.5786509-1.8111618.2391285-.5882349-.3395225-.8749344-1.0319289-.698899-1.687907s.7708735-1.1118189 1.4500608-1.1112215c.6034784.0062578 1.1449394.3721761 1.3758211.9297772s.1065888 1.1991831-.3158211 1.6302228z"/><path id="Shape" d="m20.01 22.5c0 .5522847.4477153 1 1 1s1-.4477153 1-1c-.1065944-2.7914885-2.2305173-5.089399-5.005-5.415v-1.085c0-.5522847-.4477153-1-1-1s-1 .4477153-1 1v1.083c-2.7752059.325724-4.8993677 2.6247419-5.005 5.417.1070753 2.7911037 2.2308787 5.0884607 5.005 5.414v6.954c-1.6674252-.2849988-2.915161-1.6867812-3.005-3.376 0-.5522847-.4477153-1-1-1s-1 .4477153-1 1c.1065944 2.7914885 2.2305173 5.089399 5.005 5.415v1.083c0 .5522847.4477153 1 1 1s1-.4477153 1-1v-1.083c2.7744827-.325601 4.8984056-2.6235115 5.005-5.415-.1065944-2.7914885-2.2305173-5.089399-5.005-5.415v-6.953c1.6676172.2846526 2.9155271 1.6866306 3.005 3.376zm-8.01 0c.0903781-1.6886045 1.3380797-3.089518 3.005-3.374v6.747c-1.6663804-.2847422-2.9138041-1.6849286-3.005-3.373zm8.01 8.994c-.0907438 1.6884539-1.3382714 3.0891721-3.005 3.374v-6.75c1.666537.2851734 2.9138909 1.6856966 3.005 3.374z"/><path id="Shape" d="m5 15c-.55228475 0-1 .4477153-1 1v2c0 .5522847.44771525 1 1 1s1-.4477153 1-1v-2c0-.5522847-.44771525-1-1-1z"/><path id="Shape" d="m5 21c-.55228475 0-1 .4477153-1 1v16c0 .5522847.44771525 1 1 1s1-.4477153 1-1v-16c0-.5522847-.44771525-1-1-1z"/></g></g></svg>