<?xml version="1.0" standalone="no"?>
<!DOCTYPE svg PUBLIC "-//W3C//DTD SVG 20010904//EN"
 "http://www.w3.org/TR/2001/REC-SVG-20010904/DTD/svg10.dtd">
<svg version="1.0" xmlns="http://www.w3.org/2000/svg"
 width="360.000000pt" height="360.000000pt" viewBox="0 0 360.000000 360.000000"
 preserveAspectRatio="xMidYMid meet">
<metadata>
Created by potrace 1.11, written by Peter Selinger 2001-2013
</metadata>
<g transform="translate(0.000000,360.000000) scale(0.100000,-0.100000)"
fill="#000000" stroke="none">
<path d="M0 1800 l0 -1800 1800 0 1800 0 0 1800 0 1800 -1800 0 -1800 0 0
-1800z m2310 1765 c-7 -8 -17 -15 -23 -15 -6 0 -2 7 9 15 25 19 30 19 14 0z
m-110 -49 c0 -29 -45 -69 -79 -70 -31 -1 -35 -5 -53 -53 -11 -29 -23 -53 -28
-53 -17 0 -19 17 -5 36 8 10 15 26 15 35 0 9 9 28 21 43 22 28 18 46 -11 46
-22 0 -60 -45 -60 -71 0 -24 -21 -70 -30 -64 -4 2 -38 9 -76 15 -38 6 -87 17
-109 25 -22 8 -110 17 -195 22 l-155 8 70 24 c39 13 75 28 81 33 24 18 215 36
412 37 170 1 202 -1 202 -13z m50 -19 c0 -2 -10 -12 -21 -23 -22 -19 -22 -19
-10 4 10 18 31 31 31 19z m95 -27 c10 -11 25 -20 34 -20 23 0 144 -98 181
-146 16 -21 34 -45 40 -51 6 -7 12 -30 14 -51 3 -36 30 -92 45 -92 3 0 15 -16
25 -35 11 -19 23 -35 27 -35 5 0 31 -48 59 -107 28 -60 67 -138 86 -174 19
-37 34 -75 34 -84 0 -10 13 -40 30 -66 16 -27 33 -61 36 -76 4 -16 10 -30 14
-33 6 -5 18 -29 63 -133 9 -21 17 -42 17 -48 0 -6 24 -58 52 -117 35 -71 48
-107 40 -110 -16 -5 -15 -44 2 -79 7 -15 30 -63 51 -105 l37 -77 5 -203 c3
-112 6 -315 7 -453 1 -248 1 -250 -22 -281 -16 -21 -30 -30 -43 -27 -14 4 -20
-2 -24 -23 -7 -31 -13 -48 -39 -107 -9 -21 -21 -72 -27 -113 -7 -41 -18 -81
-25 -89 -8 -7 -29 -46 -47 -87 -48 -105 -80 -151 -118 -170 -83 -40 -189 -77
-239 -83 -30 -3 -89 -10 -130 -15 -41 -5 -118 -12 -170 -15 -129 -7 -360 -45
-360 -60 0 -14 -132 -35 -215 -35 -62 1 -93 6 -205 33 -36 9 -106 25 -157 37
-108 25 -150 45 -218 103 -27 24 -71 54 -96 66 -27 14 -46 30 -45 39 0 8 -17
25 -39 36 -22 12 -66 36 -96 54 -31 18 -63 32 -70 32 -31 1 -241 236 -281 315
-36 72 -47 104 -52 159 -4 32 -22 104 -42 160 -19 55 -42 124 -50 151 -9 28
-20 64 -25 80 -21 68 -41 293 -37 422 3 101 1 133 -9 133 -7 0 -15 -16 -19
-36 -7 -38 1 -311 12 -404 5 -46 4 -53 -7 -42 -11 10 -15 58 -17 199 -3 173
-5 186 -23 190 -17 5 -19 15 -19 84 0 44 4 79 9 79 12 0 61 161 61 203 0 19
11 60 25 90 43 93 78 242 78 332 0 13 6 26 13 29 8 3 14 12 14 19 0 8 36 48
80 90 44 41 101 101 126 132 53 65 46 64 169 15 214 -86 248 -104 285 -150 19
-24 50 -58 68 -76 17 -18 32 -37 32 -42 0 -5 7 -15 15 -22 9 -7 14 -19 11 -26
-11 -27 153 -154 199 -154 9 0 13 -5 10 -11 -4 -5 0 -18 9 -28 29 -32 31 -84
5 -145 -12 -31 -26 -56 -30 -56 -4 0 -10 -11 -13 -25 -7 -26 -50 -75 -66 -75
-6 0 -10 -7 -10 -15 0 -18 -7 -28 -67 -91 -24 -25 -43 -47 -43 -49 0 -10 -50
-54 -102 -88 l-57 -39 -114 4 c-113 3 -114 3 -170 41 -32 20 -57 44 -57 52 0
8 -4 15 -9 15 -23 0 -55 67 -66 136 l-11 72 65 0 c64 0 151 24 151 43 0 4 11
19 25 33 37 37 34 97 -8 177 -35 67 -50 76 -117 78 l-35 1 35 34 c19 19 66 50
103 70 66 34 73 36 170 36 93 0 104 -2 139 -26 20 -15 47 -46 59 -70 11 -24
25 -44 30 -44 5 0 9 -6 9 -13 0 -28 109 -95 131 -82 17 11 9 23 -28 40 -50 23
-103 75 -103 100 -1 27 -56 84 -109 114 -39 21 -52 23 -134 19 -142 -8 -208
-39 -311 -147 -16 -17 -34 -31 -40 -31 -6 0 -18 -15 -25 -32 -8 -18 -21 -39
-29 -47 -11 -12 -13 -48 -10 -190 4 -163 6 -179 29 -221 13 -24 29 -49 35 -55
6 -5 16 -18 20 -27 5 -9 36 -37 68 -63 l58 -45 142 0 141 0 38 35 c21 19 42
35 46 35 10 0 151 150 151 160 0 5 29 43 65 85 45 52 68 90 76 121 6 24 15 47
20 50 23 14 -7 164 -33 164 -4 0 -5 6 -2 13 3 8 -7 19 -23 28 -44 22 -80 58
-94 92 -14 33 -25 48 -99 130 -62 69 -66 77 -36 77 14 0 28 5 31 10 9 14 -61
81 -105 102 -69 32 -146 58 -175 58 -16 1 -69 11 -118 24 -83 22 -118 36 -81
33 11 -1 18 6 19 21 1 12 17 37 36 55 19 18 42 42 52 52 9 11 33 34 53 50 19
17 51 47 71 68 20 20 40 37 45 37 11 0 91 61 97 73 1 4 22 20 45 35 l41 27
254 -1 c149 -1 262 -6 275 -12 11 -6 53 -18 91 -28 39 -10 72 -19 73 -20 6 -4
-41 -128 -65 -169 -29 -51 -30 -27 -2 41 21 51 20 89 -2 82 -7 -2 -24 -37 -40
-78 -15 -41 -28 -69 -28 -62 -1 6 -8 12 -16 12 -11 0 -15 12 -15 50 0 42 -3
50 -19 50 -19 0 -22 -7 -40 -116 -5 -28 -21 -90 -35 -138 -27 -88 -32 -166
-10 -173 6 -2 15 7 21 19 8 18 11 8 16 -55 4 -44 14 -88 23 -102 9 -14 13 -25
8 -25 -4 0 -3 -5 4 -12 7 -7 12 -29 12 -50 0 -21 4 -46 9 -56 5 -9 12 -25 15
-34 3 -10 12 -18 21 -18 12 0 15 13 15 58 0 31 5 83 10 115 6 31 14 82 19 112
14 78 25 89 31 30 3 -35 9 -50 20 -50 11 0 17 25 27 100 7 55 12 110 11 121
-3 26 50 141 68 148 10 4 10 -2 0 -27 -23 -56 -41 -166 -29 -178 20 -20 64 94
83 215 12 78 48 133 95 142 19 3 39 11 43 18 4 6 19 17 35 23 15 7 27 20 27
28 0 24 -90 10 -109 -16 -7 -10 -18 -19 -23 -19 -17 0 34 61 58 70 13 5 24 16
24 24 0 12 84 83 101 85 3 1 14 -8 24 -19z m-145 -24 c0 -2 -8 -10 -17 -17
-16 -13 -17 -12 -4 4 13 16 21 21 21 13z m-1035 -96 c-3 -5 -12 -10 -18 -10
-7 0 -6 4 3 10 19 12 23 12 15 0z m840 -70 c-8 -16 -15 -36 -15 -45 0 -9 -4
-14 -9 -11 -11 7 18 86 31 86 5 0 2 -13 -7 -30z m-9 -117 c-11 -11 -17 4 -9
23 7 18 8 18 11 1 2 -10 1 -21 -2 -24z m-236 -158 c0 -19 -4 -35 -10 -35 -5 0
-10 16 -10 35 0 19 5 35 10 35 6 0 10 -16 10 -35z m43 -160 c-3 -9 -8 -14 -10
-11 -3 3 -2 9 2 15 9 16 15 13 8 -4z m-625 -50 c12 -12 -6 -11 -38 1 l-35 14
34 -5 c19 -3 37 -7 39 -10z m1719 -7 c-3 -8 -6 -5 -6 6 -1 11 2 17 5 13 3 -3
4 -12 1 -19z m20 -50 c-3 -8 -6 -5 -6 6 -1 11 2 17 5 13 3 -3 4 -12 1 -19z
m-1107 -4 c0 -8 -4 -12 -10 -9 -5 3 -10 10 -10 16 0 5 5 9 10 9 6 0 10 -7 10
-16z m-1504 -640 c-10 -27 -15 -33 -15 -17 -1 24 21 81 26 66 2 -5 -3 -27 -11
-49z m114 -920 c0 -12 5 -26 10 -29 6 -3 10 -23 9 -43 0 -37 0 -37 -19 17 -10
30 -21 75 -24 100 l-6 46 15 -34 c8 -18 15 -44 15 -57z m-43 -146 c-3 -8 -6
-5 -6 6 -1 11 2 17 5 13 3 -3 4 -12 1 -19z m89 -134 c21 -50 12 -52 -15 -4
-13 23 -17 40 -11 40 6 0 18 -16 26 -36z m2705 -151 c-9 -16 -10 -16 -11 4 0
12 3 30 7 40 7 16 8 16 11 -4 2 -12 -1 -30 -7 -40z m-14 -45 c-3 -8 -6 -5 -6
6 -1 11 2 17 5 13 3 -3 4 -12 1 -19z m-2492 -108 c3 -5 2 -10 -4 -10 -5 0 -13
5 -16 10 -3 6 -2 10 4 10 5 0 13 -4 16 -10z"/>
<path d="M1318 3183 c-16 -4 -33 -32 -24 -40 2 -2 16 7 31 21 27 26 27 28 -7
19z"/>
<path d="M1384 3125 c-4 -8 -14 -15 -23 -15 -21 0 -58 -26 -50 -34 7 -8 69 14
69 24 0 4 14 10 30 14 17 3 30 10 30 16 0 16 -50 12 -56 -5z"/>
<path d="M1560 3063 c-19 -9 -52 -19 -73 -23 -31 -6 -35 -5 -26 7 7 7 9 16 6
20 -4 3 -26 -13 -49 -36 -25 -24 -63 -48 -91 -57 -66 -22 -107 -86 -45 -71 13
4 28 16 33 29 7 16 28 29 70 43 33 11 63 23 66 28 3 5 15 7 26 5 11 -1 35 4
54 13 19 10 46 23 61 29 15 7 25 17 22 22 -7 10 -12 10 -54 -9z"/>
<path d="M2247 3052 c-21 -3 -31 -11 -38 -31 -6 -16 -22 -34 -37 -41 -29 -15
-102 -88 -102 -103 0 -5 -25 -39 -55 -75 -30 -37 -55 -72 -55 -78 0 -6 -7 -17
-15 -24 -21 -18 -21 -206 0 -257 35 -84 165 -227 243 -268 29 -15 52 -31 52
-35 0 -4 16 -15 36 -25 32 -15 46 -16 111 -6 40 6 122 11 181 11 76 0 115 4
135 15 15 8 37 21 50 28 52 28 117 92 117 114 0 13 5 23 10 23 18 0 11 191 -8
226 -9 18 -25 49 -35 70 -33 69 -49 96 -68 115 -11 11 -19 25 -19 32 0 7 -8
20 -17 28 -10 9 -51 53 -92 97 -40 45 -78 82 -83 82 -6 0 -31 20 -55 45 -35
34 -54 45 -86 49 -66 8 -140 12 -170 8z m193 -54 c49 -28 51 -44 5 -52 -29 -6
-35 -12 -41 -41 -3 -19 -4 -75 -3 -125 4 -86 6 -93 32 -116 25 -21 38 -24 111
-24 83 0 84 0 109 33 14 19 27 48 29 65 l3 32 35 -51 c19 -27 44 -62 56 -77
11 -15 35 -65 52 -110 36 -94 44 -199 18 -221 -8 -7 -18 -25 -21 -41 -4 -16
-15 -32 -25 -35 -10 -3 -38 -21 -62 -40 l-43 -35 -136 0 c-75 0 -151 -5 -168
-11 -41 -14 -94 1 -166 48 -27 18 -56 33 -65 33 -8 0 -33 23 -55 51 -22 28
-52 63 -67 77 -14 15 -38 57 -53 95 -23 57 -27 79 -23 141 2 52 8 80 21 93 9
11 17 27 17 37 0 10 16 32 35 49 19 17 35 34 35 39 0 23 74 108 135 154 67 51
73 53 133 53 48 1 73 -4 102 -21z"/>
<path d="M1609 2768 c11 -29 26 -66 35 -83 9 -16 16 -37 16 -46 0 -25 24 -69
38 -69 22 0 13 33 -39 137 -57 115 -77 140 -50 61z"/>
<path d="M1384 2689 c2 -28 11 -54 22 -66 11 -11 24 -28 31 -39 6 -10 5 1 -4
26 -8 25 -18 49 -22 55 -5 5 -13 24 -20 40 -11 29 -11 28 -7 -16z"/>
<path d="M1500 2688 c0 -8 4 -18 8 -23 5 -6 14 -29 21 -52 6 -24 16 -43 20
-43 5 0 20 -27 35 -60 15 -33 31 -60 37 -60 17 0 9 50 -12 71 -11 11 -28 39
-38 62 -23 53 -71 125 -71 105z"/>
<path d="M1724 2166 c-29 -7 -69 -27 -90 -44 -21 -18 -42 -32 -46 -32 -11 0
-135 -126 -175 -177 -18 -23 -33 -52 -33 -65 0 -13 -9 -54 -20 -93 -15 -55
-20 -103 -20 -225 0 -85 -5 -182 -10 -215 -15 -96 -29 -157 -38 -169 -10 -13
-47 -114 -51 -139 -1 -7 -44 -96 -64 -132 -6 -11 -13 -60 -15 -108 l-5 -89 39
-39 c21 -21 48 -39 59 -39 12 0 30 -8 41 -19 31 -28 59 -41 106 -47 24 -4 53
-10 66 -15 54 -21 202 -7 252 22 8 5 24 13 35 18 11 5 42 32 68 60 27 28 52
51 56 51 4 0 22 16 40 35 17 19 35 35 40 35 4 0 20 11 33 25 14 14 47 37 74
51 27 14 56 34 65 43 9 10 57 37 105 61 49 24 100 53 114 65 14 12 48 31 75
41 28 10 53 23 57 28 5 7 83 12 210 14 l203 3 40 44 c60 65 76 119 82 263 6
120 5 124 -23 180 -16 31 -32 59 -36 60 -4 2 -8 11 -8 20 0 10 -13 28 -30 42
-16 14 -30 31 -30 39 0 8 -15 32 -34 55 -18 23 -40 55 -49 73 -9 17 -25 34
-36 38 -11 3 -22 12 -24 20 -13 32 -185 82 -201 57 -9 -15 -48 -2 -72 24 -12
12 -41 28 -65 34 -24 7 -49 16 -56 22 -21 17 -84 47 -114 53 -16 4 -33 14 -38
22 -4 9 -30 25 -57 36 -40 16 -77 20 -209 23 -108 2 -177 -1 -211 -10z m234
-173 c1 -84 0 -153 -3 -153 -11 0 -50 25 -58 38 -4 6 -15 12 -23 12 -9 0 -27
8 -40 19 -13 10 -44 25 -69 32 -31 9 -45 19 -45 31 0 9 -16 33 -35 52 -19 20
-35 40 -35 45 0 16 67 63 103 71 17 5 70 8 117 7 l85 -2 3 -152z m55 150 c-7
-2 -21 -2 -30 0 -10 3 -4 5 12 5 17 0 24 -2 18 -5z m146 -41 c41 -20 76 -42
78 -48 2 -5 -10 -25 -27 -44 -16 -18 -30 -37 -30 -40 0 -4 -11 -12 -24 -19
-30 -16 -87 1 -128 38 -24 21 -28 33 -28 78 0 51 1 53 33 62 48 14 47 14 126
-27z m-488 -116 c10 -16 16 -33 13 -38 -3 -5 8 -24 25 -44 17 -19 31 -43 31
-53 0 -10 3 -21 7 -25 11 -11 12 -78 1 -98 -7 -15 -23 -18 -94 -18 -72 0 -95
4 -145 28 l-59 27 0 59 c0 58 1 61 58 131 8 10 63 53 84 66 6 4 7 12 3 19 -4
7 7 4 25 -6 18 -10 41 -32 51 -48z m-262 -220 c-20 -19 -21 -19 -15 -2 3 10
12 39 19 65 l12 46 3 -44 c3 -35 -1 -48 -19 -65z m29 -15 c-2 -4 26 -39 60
-76 35 -37 60 -71 55 -75 -4 -5 -28 -10 -53 -11 -25 -2 -56 -11 -69 -21 -41
-31 -51 -24 -51 35 1 70 15 129 36 144 21 15 25 16 22 4z m1068 -233 l36 -33
-7 -84 c-5 -65 -12 -92 -31 -120 -13 -20 -24 -39 -24 -44 0 -17 -130 -138
-134 -125 -3 7 -6 24 -9 38 -2 14 -7 32 -11 40 -5 12 3 19 29 29 19 6 41 18
48 25 7 7 26 17 42 23 29 9 48 43 25 43 -7 0 -59 -23 -116 -51 l-104 -51 -120
3 c-72 2 -121 -1 -122 -6 -4 -15 61 -34 122 -35 l55 -1 -27 -17 c-16 -9 -28
-22 -28 -28 0 -7 -13 -22 -30 -35 -19 -16 -30 -33 -30 -50 0 -15 -7 -32 -16
-40 -8 -7 -24 -30 -35 -50 -23 -46 -37 -56 -46 -32 -13 36 -36 53 -73 53 -54
0 -101 -19 -133 -54 l-28 -31 5 65 c7 100 14 126 41 178 14 26 25 53 25 60 0
22 120 162 139 162 4 0 20 11 35 25 39 36 67 40 112 16 49 -26 86 -27 109 -1
10 11 26 20 35 20 10 0 25 11 33 23 8 13 42 37 74 53 32 16 67 37 77 47 28 24
41 22 82 -15z m304 -155 c28 -14 65 -45 82 -67 18 -23 40 -49 49 -58 23 -23
15 -49 -30 -98 -38 -42 -83 -54 -95 -25 -3 8 -16 15 -30 15 -15 0 -35 13 -55
35 -29 33 -31 41 -31 115 0 43 3 85 6 94 9 23 45 20 104 -11z m-189 -128 c18
-25 37 -45 43 -45 9 0 40 -51 33 -55 -1 0 -14 -9 -29 -18 -15 -9 -46 -17 -69
-17 -67 0 -199 -41 -254 -78 -27 -18 -86 -51 -130 -72 -44 -21 -86 -48 -93
-59 -7 -12 -20 -21 -30 -21 -9 0 -28 -9 -42 -20 -14 -11 -28 -20 -32 -20 -5 0
-17 -8 -27 -17 -11 -10 -39 -35 -63 -55 -24 -20 -61 -52 -83 -72 -37 -33 -54
-43 -126 -76 -28 -13 -84 -6 -95 11 -6 10 54 107 80 128 9 8 16 22 16 32 0 11
5 19 10 19 6 0 10 9 10 21 0 12 20 41 45 66 39 40 51 47 95 51 44 4 50 2 50
-15 0 -11 14 -32 30 -48 l31 -29 25 29 c13 17 36 54 51 83 14 28 29 52 33 52
4 0 10 12 14 28 12 58 98 122 163 122 18 0 25 -7 30 -30 9 -47 83 -96 83 -55
0 9 20 35 45 58 25 24 45 47 45 50 0 4 8 16 18 26 9 10 28 31 41 45 13 14 29
26 36 26 8 0 28 -20 46 -45z m168 -131 c2 -2 -14 -4 -37 -4 -23 0 -42 5 -42
10 0 10 67 4 79 -6z m-1332 -399 c19 -19 41 -35 49 -35 17 0 64 -29 64 -40 0
-12 -104 -60 -130 -60 -14 0 -38 7 -54 15 -15 8 -38 15 -51 15 -12 0 -28 7
-35 15 -7 8 -19 15 -26 15 -21 0 -17 18 7 30 11 7 31 21 44 32 29 26 66 46 84
47 8 1 29 -15 48 -34z m198 -115 c11 -5 29 -11 40 -12 16 -3 13 -7 -16 -21
-32 -16 -92 -21 -186 -18 -27 1 -31 21 -5 21 11 0 27 9 36 19 26 29 80 33 131
11z"/>
<path d="M2480 2099 c0 -5 17 -9 37 -9 43 0 41 6 -4 13 -18 3 -33 1 -33 -4z"/>
<path d="M2392 2094 c4 -3 23 -10 43 -14 21 -5 34 -5 29 -1 -10 10 -80 24 -72
15z"/>
<path d="M2728 2093 c12 -2 30 -2 40 0 9 3 -1 5 -23 4 -22 0 -30 -2 -17 -4z"/>
<path d="M2630 2059 c14 -6 48 -17 75 -24 l50 -13 -27 20 c-16 13 -46 22 -75
24 -41 3 -44 2 -23 -7z"/>
<path d="M2811 1973 c-1 -12 80 -83 95 -83 5 0 22 -11 38 -25 30 -25 46 -31
46 -17 0 14 -137 112 -157 112 -6 0 -14 6 -16 13 -4 8 -6 9 -6 0z"/>
<path d="M632 1778 c3 -7 15 -18 28 -25 12 -6 33 -24 46 -40 13 -15 23 -22 24
-15 0 13 -79 92 -93 92 -5 0 -7 -6 -5 -12z"/>
<path d="M830 1671 c0 -5 16 -12 35 -15 19 -4 34 -12 32 -19 -1 -8 16 -13 53
-14 l55 -2 -43 13 c-24 8 -58 21 -76 30 -38 18 -56 20 -56 7z"/>
<path d="M1137 1583 c-7 -39 -1 -40 18 -4 13 26 13 31 1 31 -7 0 -16 -12 -19
-27z"/>
<path d="M1117 1533 c-4 -3 -7 -13 -7 -22 1 -13 3 -13 11 2 11 19 8 33 -4 20z"/>
<path d="M1086 1299 c-4 -37 -5 -76 -2 -87 4 -12 2 -29 -3 -39 -15 -27 -41
-169 -40 -217 1 -38 2 -36 14 24 7 36 18 88 25 115 13 56 24 194 18 240 -3 21
-6 9 -12 -36z"/>
<path d="M920 1271 c0 -5 -3 -18 -6 -28 -6 -16 -5 -16 9 2 19 23 21 35 7 35
-5 0 -10 -4 -10 -9z"/>
<path d="M902 1195 c0 -16 2 -22 5 -12 2 9 2 23 0 30 -3 6 -5 -1 -5 -18z"/>
<path d="M997 1023 c-16 -31 -47 -193 -47 -242 0 -17 5 -31 10 -31 6 0 10 -6
10 -14 0 -16 28 -41 36 -33 3 3 -1 16 -10 29 -9 13 -16 42 -16 68 0 51 23 206
35 233 12 28 -3 20 -18 -10z"/>
<path d="M2313 870 c-17 -4 -39 -15 -48 -24 -9 -9 -33 -29 -53 -44 -52 -38
-112 -104 -112 -122 0 -9 -16 -49 -35 -89 -20 -41 -34 -79 -32 -84 2 -6 14 11
27 39 13 27 33 63 44 79 21 30 22 33 25 58 1 15 93 117 105 117 5 0 25 13 46
30 39 31 120 52 120 31 0 -6 17 -11 40 -11 22 0 40 4 40 9 0 5 8 12 18 14 30
8 -151 5 -185 -3z"/>
<path d="M2338 770 c-14 -16 -36 -30 -47 -30 -16 0 -21 -6 -21 -24 0 -15 -10
-32 -26 -43 -17 -13 -25 -26 -22 -39 3 -15 12 -6 42 39 20 32 45 61 53 64 9 4
25 15 35 25 10 10 25 18 33 18 8 0 15 5 15 10 0 21 -37 9 -62 -20z"/>
<path d="M2396 614 c-9 -8 -13 -20 -10 -25 7 -12 7 -11 23 19 14 26 9 28 -13
6z"/>
</g>
</svg>
